<svg width="1429" height="40" viewBox="0 0 1429 40" fill="none" xmlns="http://www.w3.org/2000/svg">
<rect opacity="0.2" width="1" height="40" fill="white"/>
<rect opacity="0.2" x="7" y="23" width="1" height="17" fill="white"/>
<rect opacity="0.2" x="14" y="15" width="1" height="25" fill="white"/>
<rect opacity="0.2" x="21" y="23" width="1" height="17" fill="white"/>
<rect opacity="0.2" x="28" y="15" width="1" height="25" fill="white"/>
<rect opacity="0.2" x="35" y="23" width="1" height="17" fill="white"/>
<rect opacity="0.2" x="42" y="15" width="1" height="25" fill="white"/>
<rect opacity="0.2" x="49" y="23" width="1" height="17" fill="white"/>
<rect opacity="0.2" x="56" width="1" height="40" fill="white"/>
<rect opacity="0.2" x="63" y="23" width="1" height="17" fill="white"/>
<rect opacity="0.2" x="70" y="15" width="1" height="25" fill="white"/>
<rect opacity="0.2" x="77" y="23" width="1" height="17" fill="white"/>
<rect opacity="0.2" x="84" y="15" width="1" height="25" fill="white"/>
<rect opacity="0.2" x="91" y="23" width="1" height="17" fill="white"/>
<rect opacity="0.2" x="98" y="15" width="1" height="25" fill="white"/>
<rect opacity="0.2" x="105" y="23" width="1" height="17" fill="white"/>
<rect opacity="0.2" x="112" width="1" height="40" fill="white"/>
<rect opacity="0.2" x="119" y="23" width="1" height="17" fill="white"/>
<rect opacity="0.2" x="126" y="15" width="1" height="25" fill="white"/>
<rect opacity="0.2" x="133" y="23" width="1" height="17" fill="white"/>
<rect opacity="0.2" x="140" y="15" width="1" height="25" fill="white"/>
<rect opacity="0.2" x="147" y="23" width="1" height="17" fill="white"/>
<rect opacity="0.2" x="154" y="15" width="1" height="25" fill="white"/>
<rect opacity="0.2" x="161" y="23" width="1" height="17" fill="white"/>
<rect opacity="0.2" x="168" width="1" height="40" fill="white"/>
<rect opacity="0.2" x="175" y="23" width="1" height="17" fill="white"/>
<rect opacity="0.2" x="182" y="15" width="1" height="25" fill="white"/>
<rect opacity="0.2" x="189" y="23" width="1" height="17" fill="white"/>
<rect opacity="0.2" x="196" y="15" width="1" height="25" fill="white"/>
<rect opacity="0.2" x="203" y="23" width="1" height="17" fill="white"/>
<rect opacity="0.2" x="210" y="15" width="1" height="25" fill="white"/>
<rect opacity="0.2" x="217" y="23" width="1" height="17" fill="white"/>
<rect opacity="0.2" x="224" width="1" height="40" fill="white"/>
<rect opacity="0.2" x="231" y="23" width="1" height="17" fill="white"/>
<rect opacity="0.2" x="238" y="15" width="1" height="25" fill="white"/>
<rect opacity="0.2" x="245" y="23" width="1" height="17" fill="white"/>
<rect opacity="0.2" x="252" y="15" width="1" height="25" fill="white"/>
<rect opacity="0.2" x="259" y="23" width="1" height="17" fill="white"/>
<rect opacity="0.2" x="266" y="15" width="1" height="25" fill="white"/>
<rect opacity="0.2" x="273" y="23" width="1" height="17" fill="white"/>
<rect opacity="0.2" x="280" width="1" height="40" fill="white"/>
<rect opacity="0.2" x="287" y="23" width="1" height="17" fill="white"/>
<rect opacity="0.2" x="294" y="15" width="1" height="25" fill="white"/>
<rect opacity="0.2" x="301" y="23" width="1" height="17" fill="white"/>
<rect opacity="0.2" x="308" y="15" width="1" height="25" fill="white"/>
<rect opacity="0.2" x="315" y="23" width="1" height="17" fill="white"/>
<rect opacity="0.2" x="322" y="15" width="1" height="25" fill="white"/>
<rect opacity="0.2" x="329" y="23" width="1" height="17" fill="white"/>
<rect opacity="0.2" x="336" width="1" height="40" fill="white"/>
<rect opacity="0.2" x="343" y="23" width="1" height="17" fill="white"/>
<rect opacity="0.2" x="350" y="15" width="1" height="25" fill="white"/>
<rect opacity="0.2" x="357" y="23" width="1" height="17" fill="white"/>
<rect opacity="0.2" x="364" y="15" width="1" height="25" fill="white"/>
<rect opacity="0.2" x="371" y="23" width="1" height="17" fill="white"/>
<rect opacity="0.2" x="378" y="15" width="1" height="25" fill="white"/>
<rect opacity="0.2" x="385" y="23" width="1" height="17" fill="white"/>
<rect opacity="0.2" x="392" width="1" height="40" fill="white"/>
<rect opacity="0.2" x="399" y="23" width="1" height="17" fill="white"/>
<rect opacity="0.2" x="406" y="15" width="1" height="25" fill="white"/>
<rect opacity="0.2" x="413" y="23" width="1" height="17" fill="white"/>
<rect opacity="0.2" x="420" y="15" width="1" height="25" fill="white"/>
<rect opacity="0.2" x="427" y="23" width="1" height="17" fill="white"/>
<rect opacity="0.2" x="434" y="15" width="1" height="25" fill="white"/>
<rect opacity="0.2" x="441" y="23" width="1" height="17" fill="white"/>
<rect opacity="0.2" x="448" width="1" height="40" fill="white"/>
<rect opacity="0.2" x="455" y="23" width="1" height="17" fill="white"/>
<rect opacity="0.2" x="462" y="15" width="1" height="25" fill="white"/>
<rect opacity="0.2" x="469" y="23" width="1" height="17" fill="white"/>
<rect opacity="0.2" x="476" y="15" width="1" height="25" fill="white"/>
<rect opacity="0.2" x="483" y="23" width="1" height="17" fill="white"/>
<rect opacity="0.2" x="490" y="15" width="1" height="25" fill="white"/>
<rect opacity="0.2" x="497" y="23" width="1" height="17" fill="white"/>
<rect opacity="0.2" x="504" width="1" height="40" fill="white"/>
<rect opacity="0.2" x="511" y="23" width="1" height="17" fill="white"/>
<rect opacity="0.2" x="518" y="15" width="1" height="25" fill="white"/>
<rect opacity="0.2" x="525" y="23" width="1" height="17" fill="white"/>
<rect opacity="0.2" x="532" y="15" width="1" height="25" fill="white"/>
<rect opacity="0.2" x="539" y="23" width="1" height="17" fill="white"/>
<rect opacity="0.2" x="546" y="15" width="1" height="25" fill="white"/>
<rect opacity="0.2" x="553" y="23" width="1" height="17" fill="white"/>
<rect opacity="0.2" x="560" width="1" height="40" fill="white"/>
<rect opacity="0.2" x="567" y="23" width="1" height="17" fill="white"/>
<rect opacity="0.2" x="574" y="15" width="1" height="25" fill="white"/>
<rect opacity="0.2" x="581" y="23" width="1" height="17" fill="white"/>
<rect opacity="0.2" x="588" y="15" width="1" height="25" fill="white"/>
<rect opacity="0.2" x="595" y="23" width="1" height="17" fill="white"/>
<rect opacity="0.2" x="602" y="15" width="1" height="25" fill="white"/>
<rect opacity="0.2" x="609" y="23" width="1" height="17" fill="white"/>
<rect opacity="0.2" x="616" width="1" height="40" fill="white"/>
<rect opacity="0.2" x="623" y="23" width="1" height="17" fill="white"/>
<rect opacity="0.2" x="630" y="15" width="1" height="25" fill="white"/>
<rect opacity="0.2" x="637" y="23" width="1" height="17" fill="white"/>
<rect opacity="0.2" x="644" y="15" width="1" height="25" fill="white"/>
<rect opacity="0.2" x="651" y="23" width="1" height="17" fill="white"/>
<rect opacity="0.2" x="658" y="15" width="1" height="25" fill="white"/>
<rect opacity="0.2" x="665" y="23" width="1" height="17" fill="white"/>
<rect opacity="0.2" x="672" width="1" height="40" fill="white"/>
<rect opacity="0.2" x="679" y="23" width="1" height="17" fill="white"/>
<rect opacity="0.2" x="686" y="15" width="1" height="25" fill="white"/>
<rect opacity="0.2" x="693" y="23" width="1" height="17" fill="white"/>
<rect opacity="0.2" x="700" y="15" width="1" height="25" fill="white"/>
<rect opacity="0.2" x="707" y="23" width="1" height="17" fill="white"/>
<rect opacity="0.2" x="714" y="15" width="1" height="25" fill="white"/>
<rect opacity="0.2" x="721" y="23" width="1" height="17" fill="white"/>
<rect opacity="0.2" x="728" width="1" height="40" fill="white"/>
<rect opacity="0.2" x="735" y="23" width="1" height="17" fill="white"/>
<rect opacity="0.2" x="742" y="15" width="1" height="25" fill="white"/>
<rect opacity="0.2" x="749" y="23" width="1" height="17" fill="white"/>
<rect opacity="0.2" x="756" y="15" width="1" height="25" fill="white"/>
<rect opacity="0.2" x="763" y="23" width="1" height="17" fill="white"/>
<rect opacity="0.2" x="770" y="15" width="1" height="25" fill="white"/>
<rect opacity="0.2" x="777" y="23" width="1" height="17" fill="white"/>
<rect opacity="0.2" x="784" width="1" height="40" fill="white"/>
<rect opacity="0.2" x="791" y="23" width="1" height="17" fill="white"/>
<rect opacity="0.2" x="798" y="15" width="1" height="25" fill="white"/>
<rect opacity="0.2" x="805" y="23" width="1" height="17" fill="white"/>
<rect opacity="0.2" x="812" y="15" width="1" height="25" fill="white"/>
<rect opacity="0.2" x="819" y="23" width="1" height="17" fill="white"/>
<rect opacity="0.2" x="826" y="15" width="1" height="25" fill="white"/>
<rect opacity="0.2" x="833" y="23" width="1" height="17" fill="white"/>
<rect opacity="0.2" x="840" width="1" height="40" fill="white"/>
<rect opacity="0.2" x="847" y="23" width="1" height="17" fill="white"/>
<rect opacity="0.2" x="854" y="15" width="1" height="25" fill="white"/>
<rect opacity="0.2" x="861" y="23" width="1" height="17" fill="white"/>
<rect opacity="0.2" x="868" y="15" width="1" height="25" fill="white"/>
<rect opacity="0.2" x="875" y="23" width="1" height="17" fill="white"/>
<rect opacity="0.2" x="882" y="15" width="1" height="25" fill="white"/>
<rect opacity="0.2" x="889" y="23" width="1" height="17" fill="white"/>
<rect opacity="0.2" x="896" width="1" height="40" fill="white"/>
<rect opacity="0.2" x="903" y="23" width="1" height="17" fill="white"/>
<rect opacity="0.2" x="910" y="15" width="1" height="25" fill="white"/>
<rect opacity="0.2" x="917" y="23" width="1" height="17" fill="white"/>
<rect opacity="0.2" x="924" y="15" width="1" height="25" fill="white"/>
<rect opacity="0.2" x="931" y="23" width="1" height="17" fill="white"/>
<rect opacity="0.2" x="938" y="15" width="1" height="25" fill="white"/>
<rect opacity="0.2" x="945" y="23" width="1" height="17" fill="white"/>
<rect opacity="0.2" x="952" width="1" height="40" fill="white"/>
<rect opacity="0.2" x="959" y="23" width="1" height="17" fill="white"/>
<rect opacity="0.2" x="966" y="15" width="1" height="25" fill="white"/>
<rect opacity="0.2" x="973" y="23" width="1" height="17" fill="white"/>
<rect opacity="0.2" x="980" y="15" width="1" height="25" fill="white"/>
<rect opacity="0.2" x="987" y="23" width="1" height="17" fill="white"/>
<rect opacity="0.2" x="994" y="15" width="1" height="25" fill="white"/>
<rect opacity="0.2" x="1001" y="23" width="1" height="17" fill="white"/>
<rect opacity="0.2" x="1008" width="1" height="40" fill="white"/>
<rect opacity="0.2" x="1015" y="23" width="1" height="17" fill="white"/>
<rect opacity="0.2" x="1022" y="15" width="1" height="25" fill="white"/>
<rect opacity="0.2" x="1029" y="23" width="1" height="17" fill="white"/>
<rect opacity="0.2" x="1036" y="15" width="1" height="25" fill="white"/>
<rect opacity="0.2" x="1043" y="23" width="1" height="17" fill="white"/>
<rect opacity="0.2" x="1050" y="15" width="1" height="25" fill="white"/>
<rect opacity="0.2" x="1057" y="23" width="1" height="17" fill="white"/>
<rect opacity="0.2" x="1064" width="1" height="40" fill="white"/>
<rect opacity="0.2" x="1071" y="23" width="1" height="17" fill="white"/>
<rect opacity="0.2" x="1078" y="15" width="1" height="25" fill="white"/>
<rect opacity="0.2" x="1085" y="23" width="1" height="17" fill="white"/>
<rect opacity="0.2" x="1092" y="15" width="1" height="25" fill="white"/>
<rect opacity="0.2" x="1099" y="23" width="1" height="17" fill="white"/>
<rect opacity="0.2" x="1106" y="15" width="1" height="25" fill="white"/>
<rect opacity="0.2" x="1113" y="23" width="1" height="17" fill="white"/>
<rect opacity="0.2" x="1120" width="1" height="40" fill="white"/>
<rect opacity="0.2" x="1127" y="23" width="1" height="17" fill="white"/>
<rect opacity="0.2" x="1134" y="15" width="1" height="25" fill="white"/>
<rect opacity="0.2" x="1141" y="23" width="1" height="17" fill="white"/>
<rect opacity="0.2" x="1148" y="15" width="1" height="25" fill="white"/>
<rect opacity="0.2" x="1155" y="23" width="1" height="17" fill="white"/>
<rect opacity="0.2" x="1162" y="15" width="1" height="25" fill="white"/>
<rect opacity="0.2" x="1169" y="23" width="1" height="17" fill="white"/>
<rect opacity="0.2" x="1176" width="1" height="40" fill="white"/>
<rect opacity="0.2" x="1183" y="23" width="1" height="17" fill="white"/>
<rect opacity="0.2" x="1190" y="15" width="1" height="25" fill="white"/>
<rect opacity="0.2" x="1197" y="23" width="1" height="17" fill="white"/>
<rect opacity="0.2" x="1204" y="15" width="1" height="25" fill="white"/>
<rect opacity="0.2" x="1211" y="23" width="1" height="17" fill="white"/>
<rect opacity="0.2" x="1218" y="15" width="1" height="25" fill="white"/>
<rect opacity="0.2" x="1225" y="23" width="1" height="17" fill="white"/>
<rect opacity="0.2" x="1232" width="1" height="40" fill="white"/>
<rect opacity="0.2" x="1239" y="23" width="1" height="17" fill="white"/>
<rect opacity="0.2" x="1246" y="15" width="1" height="25" fill="white"/>
<rect opacity="0.2" x="1253" y="23" width="1" height="17" fill="white"/>
<rect opacity="0.2" x="1260" y="15" width="1" height="25" fill="white"/>
<rect opacity="0.2" x="1267" y="23" width="1" height="17" fill="white"/>
<rect opacity="0.2" x="1274" y="15" width="1" height="25" fill="white"/>
<rect opacity="0.2" x="1281" y="23" width="1" height="17" fill="white"/>
<rect opacity="0.2" x="1288" width="1" height="40" fill="white"/>
<rect opacity="0.2" x="1295" y="23" width="1" height="17" fill="white"/>
<rect opacity="0.2" x="1302" y="15" width="1" height="25" fill="white"/>
<rect opacity="0.2" x="1309" y="23" width="1" height="17" fill="white"/>
<rect opacity="0.2" x="1316" y="15" width="1" height="25" fill="white"/>
<rect opacity="0.2" x="1323" y="23" width="1" height="17" fill="white"/>
<rect opacity="0.2" x="1330" y="15" width="1" height="25" fill="white"/>
<rect opacity="0.2" x="1337" y="23" width="1" height="17" fill="white"/>
<rect opacity="0.2" x="1344" width="1" height="40" fill="white"/>
<rect opacity="0.2" x="1351" y="23" width="1" height="17" fill="white"/>
<rect opacity="0.2" x="1358" y="15" width="1" height="25" fill="white"/>
<rect opacity="0.2" x="1365" y="23" width="1" height="17" fill="white"/>
<rect opacity="0.2" x="1372" y="15" width="1" height="25" fill="white"/>
<rect opacity="0.2" x="1379" y="23" width="1" height="17" fill="white"/>
<rect opacity="0.2" x="1386" y="15" width="1" height="25" fill="white"/>
<rect opacity="0.2" x="1393" y="23" width="1" height="17" fill="white"/>
<rect opacity="0.2" x="1400" width="1" height="40" fill="white"/>
<rect opacity="0.2" x="1407" y="23" width="1" height="17" fill="white"/>
<rect opacity="0.2" x="1414" y="15" width="1" height="25" fill="white"/>
<rect opacity="0.2" x="1421" y="23" width="1" height="17" fill="white"/>
<rect opacity="0.2" x="1428" y="15" width="1" height="25" fill="white"/>
</svg>
