<svg width="97" height="80" viewBox="0 0 97 80" fill="none" xmlns="http://www.w3.org/2000/svg">
<path d="M89.4185 23.8575L87.4941 23.4392L84.6076 42.2983H48.8618M89.4185 23.8575L96.3464 25.3636L92.2089 51.4392H90.0921M89.4185 23.8575V23.4392V16.8H48.8618M8.30514 23.7984L0.799988 24.8825L5.12988 51.4392H7.72782M8.30514 23.7984L9.45978 23.6316L12.8275 42.2983H48.8618M8.30514 23.7984V22.3807V16.8H48.8618M48.8618 16.8V42.2983M7.72782 51.4392V57.501H14.5594M7.72782 51.4392H90.0921M90.0921 51.4392V57.501H83.2124M14.5594 57.501L10.1333 72.8H15.6179L21.0062 57.501M14.5594 57.501H21.0062M21.0062 57.501H76.3326M76.3326 57.501L82.2021 72.8H87.7828L83.2124 57.501M76.3326 57.501H83.2124" stroke="black"/>
</svg>
