<svg width="80" height="80" viewBox="0 0 80 80" fill="none" xmlns="http://www.w3.org/2000/svg">
<path d="M8.95727 58.2474L2.15959 78.6404L22.0995 71.8427M8.95727 58.2474L22.0995 71.8427M8.95727 58.2474L25.4983 41.7063M22.0995 71.8427L38.8671 55.2082M56.8102 10.3944L65.6047 1.59998L79.2001 15.1954L70.3706 23.9547M56.8102 10.3944L70.3706 23.9547M56.8102 10.3944L49.7434 17.4612M70.3706 23.9547L63.2756 30.9934M49.7434 17.4612L63.2756 30.9934M49.7434 17.4612L40.9064 26.2982M63.2756 30.9934L54.5326 39.667M40.9064 26.2982L16.2081 1.59998L0.800049 17.0081L4.57122 20.7792M40.9064 26.2982L25.4983 41.7063M25.4983 41.7063L17.7104 33.9184M4.57122 20.7792L8.95727 16.3932M4.57122 20.7792L11.1017 27.3097M11.1017 27.3097L14.3954 24.016M11.1017 27.3097L17.7104 33.9184M17.7104 33.9184L21.9317 29.6971M38.8671 55.2082L54.5326 39.667M38.8671 55.2082L43.719 60.0601M60.6197 76.9608L56.7397 73.0808M54.5326 39.667L76.2852 61.4196L60.744 76.9608M56.7397 73.0808L61.0729 68.7476M56.7397 73.0808L50.1966 66.5377M50.1966 66.5377L53.5019 63.2323M50.1966 66.5377L43.719 60.0601M43.719 60.0601L47.9307 55.8484" stroke="black"/>
<path fill-rule="evenodd" clip-rule="evenodd" d="M18.0211 19.3804C20.3324 19.3804 22.2061 17.5067 22.2061 15.1954C22.2061 12.8841 20.3324 11.0104 18.0211 11.0104C15.7098 11.0104 13.8361 12.8841 13.8361 15.1954C13.8361 17.5067 15.7098 19.3804 18.0211 19.3804ZM18.0211 20.1804C20.7742 20.1804 23.0061 17.9485 23.0061 15.1954C23.0061 12.4423 20.7742 10.2104 18.0211 10.2104C15.268 10.2104 13.0361 12.4423 13.0361 15.1954C13.0361 17.9485 15.268 20.1804 18.0211 20.1804Z" fill="black"/>
</svg>
