<svg width="80" height="80" viewBox="0 0 80 80" fill="none" xmlns="http://www.w3.org/2000/svg">
<path d="M62.2534 47.4809H75.4198V79.2H62.2534M62.2534 47.4809V20.5496L17.9664 0.799988V47.4809M62.2534 47.4809V79.2M17.9664 47.4809H4.79999V79.2H17.9664M17.9664 47.4809V79.2M62.2534 79.2H45.4962M17.9664 79.2H34.7237M34.7237 79.2V64.2382H45.4962V79.2M34.7237 79.2H45.4962M26.9435 26.5343H36.5191V33.1175H26.9435V26.5343ZM43.7008 26.5343H53.2763V33.1175H43.7008V26.5343ZM26.9435 37.9053H36.5191V43.8901H26.9435V37.9053ZM43.7008 37.9053H53.2763V43.8901H43.7008V37.9053ZM26.9435 48.6779H36.5191V54.6626H26.9435V48.6779ZM43.7008 48.6779H53.2763V54.6626H43.7008V48.6779Z" stroke="black"/>
</svg>
